<svg id="visual" viewBox="0 0 900 600" width="900" height="600" xmlns="http://www.w3.org/2000/svg" xmlns:xlink="http://www.w3.org/1999/xlink" version="1.1"><g><g transform="translate(773 502)"><path d="M60.9 -36.2C72.4 -15.2 70.8 12.3 58.4 33.3C46.1 54.2 23 68.5 0.5 68.2C-22 67.8 -44 53 -56.3 32.1C-68.6 11.2 -71.2 -15.7 -60.2 -36.3C-49.2 -57 -24.6 -71.3 0.1 -71.4C24.7 -71.4 49.4 -57.1 60.9 -36.2Z" fill="none" stroke="#8093F1" stroke-width="3"></path></g><g transform="translate(444 417)"><path d="M8.8 -5.3C10.5 -2.1 10.4 1.9 8.6 5C6.8 8.1 3.4 10.2 0 10.2C-3.4 10.2 -6.8 8.1 -8.6 5C-10.4 1.9 -10.6 -2.2 -8.9 -5.3C-7.2 -8.4 -3.6 -10.6 0 -10.6C3.6 -10.6 7.1 -8.4 8.8 -5.3Z" fill="none" stroke="#8093F1" stroke-width="3"></path></g><g transform="translate(610 364)"><path d="M12.1 -7C14.4 -2.9 14.2 2.6 11.7 6.7C9.3 10.8 4.7 13.5 -0.1 13.5C-4.8 13.6 -9.6 10.9 -12.1 6.8C-14.6 2.7 -14.9 -3 -12.4 -7.2C-10 -11.3 -5 -14 -0.1 -13.9C4.9 -13.9 9.7 -11.1 12.1 -7Z" stroke="#8093F1" fill="none" stroke-width="3"></path></g><g transform="translate(214 140)"><path d="M9.9 -5.8C11.8 -2.5 11.5 2 9.5 5.5C7.5 9 3.7 11.5 0 11.5C-3.8 11.5 -7.7 9.1 -9.5 5.7C-11.3 2.3 -11.2 -2 -9.2 -5.3C-7.3 -8.6 -3.7 -10.9 0.2 -11C4 -11.2 8.1 -9.1 9.9 -5.8Z" stroke="#8093F1" fill="none" stroke-width="3"></path></g><g transform="translate(410 203)"><path d="M56 -32.9C66.7 -13.8 65.5 11.7 54.2 31C42.8 50.3 21.4 63.4 -0.2 63.5C-21.8 63.6 -43.7 50.7 -54.3 31.9C-64.9 13 -64.2 -11.9 -53.3 -31.1C-42.4 -50.4 -21.2 -64 0.7 -64.4C22.7 -64.9 45.3 -52.1 56 -32.9Z" stroke="#8093F1" fill="none" stroke-width="3"></path></g><g transform="translate(180 500)"><path d="M26.1 -15C31.4 -6 31.5 6.1 26.3 14.7C21.1 23.3 10.5 28.4 0.3 28.2C-9.9 28 -19.9 22.6 -24.7 14.2C-29.6 5.8 -29.4 -5.5 -24.5 -14.4C-19.5 -23.4 -9.8 -29.8 0.3 -30C10.4 -30.2 20.8 -24.1 26.1 -15Z" stroke="#8093F1" fill="none" stroke-width="3"></path></g><g transform="translate(737 126)"><path d="M42.8 -24.4C51.8 -9.3 52.6 10.8 44.1 25.3C35.6 39.8 17.8 48.7 0 48.7C-17.8 48.7 -35.7 39.8 -45 24.8C-54.4 9.8 -55.3 -11.3 -46.4 -26.4C-37.5 -41.5 -18.7 -50.5 -0.9 -50C17 -49.5 33.9 -39.4 42.8 -24.4Z" stroke="#8093F1" fill="none" stroke-width="3"></path></g><g transform="translate(90 322)"><path d="M21.7 -12.7C26.2 -4.9 26.4 5.2 22 12.5C17.7 19.8 8.9 24.2 0.2 24.1C-8.4 24 -16.8 19.2 -21.2 11.9C-25.6 4.6 -26 -5.3 -21.8 -13C-17.6 -20.7 -8.8 -26.2 -0.1 -26.1C8.7 -26.1 17.3 -20.6 21.7 -12.7Z" stroke="#8093F1" fill="none" stroke-width="3"></path></g><g transform="translate(803 328)"><path d="M26.9 -15.7C31.9 -6.7 31.2 5.4 25.7 14.5C20.3 23.6 10.1 29.6 -0.5 29.9C-11.1 30.1 -22.1 24.7 -27.7 15.5C-33.4 6.3 -33.6 -6.6 -28 -15.8C-22.5 -25 -11.2 -30.6 -0.2 -30.5C10.9 -30.4 21.8 -24.6 26.9 -15.7Z" stroke="#8093F1" fill="none" stroke-width="3"></path></g><g transform="translate(275 349)"><path d="M41.9 -24.2C50.6 -9.1 51.4 10.5 43.1 25.2C34.8 40 17.4 49.9 0.4 49.6C-16.6 49.4 -33.2 39.1 -41.9 24.1C-50.6 9.2 -51.3 -10.4 -43 -25.3C-34.7 -40.1 -17.3 -50.2 -0.4 -50C16.6 -49.8 33.2 -39.2 41.9 -24.2Z" stroke="#8093F1" fill="none" stroke-width="3"></path></g><g transform="translate(560 94)"><path d="M28.5 -16.1C34.4 -6.3 34.9 7.1 29.2 17.3C23.6 27.5 11.8 34.5 0 34.5C-11.7 34.5 -23.4 27.4 -29.1 17.1C-34.8 6.9 -34.4 -6.4 -28.6 -16.2C-22.7 -26 -11.4 -32.3 0 -32.3C11.3 -32.3 22.6 -25.9 28.5 -16.1Z" stroke="#8093F1" fill="none" stroke-width="3"></path></g></g></svg>