<svg id="visual" viewBox="0 0 900 600" width="900" height="600" xmlns="http://www.w3.org/2000/svg" xmlns:xlink="http://www.w3.org/1999/xlink" version="1.1"><path d="M0 266L150 266L150 342L300 342L300 408L450 408L450 329L600 329L600 348L750 348L750 275L900 275L900 291L900 601L900 601L750 601L750 601L600 601L600 601L450 601L450 601L300 601L300 601L150 601L150 601L0 601Z" fill="#4f69eb"></path><path d="M0 468L150 468L150 489L300 489L300 400L450 400L450 477L600 477L600 398L750 398L750 489L900 489L900 506L900 601L900 601L750 601L750 601L600 601L600 601L450 601L450 601L300 601L300 601L150 601L150 601L0 601Z" fill="#3956e9"></path><path d="M0 524L150 524L150 459L300 459L300 483L450 483L450 480L600 480L600 544L750 544L750 507L900 507L900 574L900 601L900 601L750 601L750 601L600 601L600 601L450 601L450 601L300 601L300 601L150 601L150 601L0 601Z" fill="#2041e6"></path></svg>